<mxfile host="app.diagrams.net" agent="Mozilla/5.0 (Windows NT 10.0; Win64; x64) AppleWebKit/537.36 (KHTML, like Gecko) Chrome/141.0.0.0 Safari/537.36 Edg/141.0.0.0" version="28.2.7">
  <diagram id="C5RBs43oDa-KdzZeNtuy" name="Page-1">
    <mxGraphModel dx="2411" dy="740" grid="1" gridSize="10" guides="1" tooltips="1" connect="1" arrows="1" fold="1" page="1" pageScale="1" pageWidth="827" pageHeight="1169" math="0" shadow="0">
      <root>
        <mxCell id="WIyWlLk6GJQsqaUBKTNV-0" />
        <mxCell id="WIyWlLk6GJQsqaUBKTNV-1" parent="WIyWlLk6GJQsqaUBKTNV-0" />
        <mxCell id="zkfFHV4jXpPFQw0GAbJ--0" value="Usuario" style="swimlane;fontStyle=2;align=center;verticalAlign=top;childLayout=stackLayout;horizontal=1;startSize=26;horizontalStack=0;resizeParent=1;resizeLast=0;collapsible=1;marginBottom=0;rounded=0;shadow=0;strokeWidth=1;" parent="WIyWlLk6GJQsqaUBKTNV-1" vertex="1">
          <mxGeometry x="390" y="200" width="220" height="166" as="geometry">
            <mxRectangle x="230" y="140" width="160" height="26" as="alternateBounds" />
          </mxGeometry>
        </mxCell>
        <mxCell id="f-wM4YywMEG4VE4mOqUz-0" value="+ email: str" style="text;strokeColor=none;fillColor=none;align=left;verticalAlign=top;spacingLeft=4;spacingRight=4;overflow=hidden;rotatable=0;points=[[0,0.5],[1,0.5]];portConstraint=eastwest;whiteSpace=wrap;html=1;" vertex="1" parent="zkfFHV4jXpPFQw0GAbJ--0">
          <mxGeometry y="26" width="220" height="26" as="geometry" />
        </mxCell>
        <mxCell id="f-wM4YywMEG4VE4mOqUz-1" value="+ pass: str" style="text;strokeColor=none;fillColor=none;align=left;verticalAlign=top;spacingLeft=4;spacingRight=4;overflow=hidden;rotatable=0;points=[[0,0.5],[1,0.5]];portConstraint=eastwest;whiteSpace=wrap;html=1;" vertex="1" parent="zkfFHV4jXpPFQw0GAbJ--0">
          <mxGeometry y="52" width="220" height="26" as="geometry" />
        </mxCell>
        <mxCell id="zkfFHV4jXpPFQw0GAbJ--4" value="" style="line;html=1;strokeWidth=1;align=left;verticalAlign=middle;spacingTop=-1;spacingLeft=3;spacingRight=3;rotatable=0;labelPosition=right;points=[];portConstraint=eastwest;" parent="zkfFHV4jXpPFQw0GAbJ--0" vertex="1">
          <mxGeometry y="78" width="220" height="8" as="geometry" />
        </mxCell>
        <mxCell id="f-wM4YywMEG4VE4mOqUz-3" value="+ registrar(email, pass): Response" style="text;strokeColor=none;fillColor=none;align=left;verticalAlign=top;spacingLeft=4;spacingRight=4;overflow=hidden;rotatable=0;points=[[0,0.5],[1,0.5]];portConstraint=eastwest;whiteSpace=wrap;html=1;" vertex="1" parent="zkfFHV4jXpPFQw0GAbJ--0">
          <mxGeometry y="86" width="220" height="24" as="geometry" />
        </mxCell>
        <mxCell id="f-wM4YywMEG4VE4mOqUz-35" value="&lt;div&gt;+ validarEmail(email): Response&lt;/div&gt;&lt;div&gt;&lt;br&gt;&lt;/div&gt;" style="text;strokeColor=none;fillColor=none;align=left;verticalAlign=top;spacingLeft=4;spacingRight=4;overflow=hidden;rotatable=0;points=[[0,0.5],[1,0.5]];portConstraint=eastwest;whiteSpace=wrap;html=1;" vertex="1" parent="zkfFHV4jXpPFQw0GAbJ--0">
          <mxGeometry y="110" width="220" height="20" as="geometry" />
        </mxCell>
        <mxCell id="f-wM4YywMEG4VE4mOqUz-36" value="+ validarPassword(pass): Response" style="text;strokeColor=none;fillColor=none;align=left;verticalAlign=top;spacingLeft=4;spacingRight=4;overflow=hidden;rotatable=0;points=[[0,0.5],[1,0.5]];portConstraint=eastwest;whiteSpace=wrap;html=1;" vertex="1" parent="zkfFHV4jXpPFQw0GAbJ--0">
          <mxGeometry y="130" width="220" height="26" as="geometry" />
        </mxCell>
        <mxCell id="f-wM4YywMEG4VE4mOqUz-4" value="ICRUD&amp;lt;E&amp;gt;" style="swimlane;fontStyle=0;childLayout=stackLayout;horizontal=1;startSize=26;fillColor=none;horizontalStack=0;resizeParent=1;resizeParentMax=0;resizeLast=0;collapsible=1;marginBottom=0;whiteSpace=wrap;html=1;" vertex="1" parent="WIyWlLk6GJQsqaUBKTNV-1">
          <mxGeometry x="20" y="50" width="220" height="130" as="geometry" />
        </mxCell>
        <mxCell id="f-wM4YywMEG4VE4mOqUz-11" value="add(input): Response" style="label;fontStyle=0;strokeColor=none;fillColor=none;align=left;verticalAlign=top;overflow=hidden;spacingLeft=28;spacingRight=4;rotatable=0;points=[[0,0.5],[1,0.5]];portConstraint=eastwest;imageWidth=16;imageHeight=16;whiteSpace=wrap;html=1;image=img/clipart/Gear_128x128.png" vertex="1" parent="f-wM4YywMEG4VE4mOqUz-4">
          <mxGeometry y="26" width="220" height="26" as="geometry" />
        </mxCell>
        <mxCell id="f-wM4YywMEG4VE4mOqUz-8" value="update(key, input): Response" style="label;fontStyle=0;strokeColor=none;fillColor=none;align=left;verticalAlign=top;overflow=hidden;spacingLeft=28;spacingRight=4;rotatable=0;points=[[0,0.5],[1,0.5]];portConstraint=eastwest;imageWidth=16;imageHeight=16;whiteSpace=wrap;html=1;image=img/clipart/Gear_128x128.png" vertex="1" parent="f-wM4YywMEG4VE4mOqUz-4">
          <mxGeometry y="52" width="220" height="26" as="geometry" />
        </mxCell>
        <mxCell id="f-wM4YywMEG4VE4mOqUz-10" value="delete(key): Response" style="label;fontStyle=0;strokeColor=none;fillColor=none;align=left;verticalAlign=top;overflow=hidden;spacingLeft=28;spacingRight=4;rotatable=0;points=[[0,0.5],[1,0.5]];portConstraint=eastwest;imageWidth=16;imageHeight=16;whiteSpace=wrap;html=1;image=img/clipart/Gear_128x128.png" vertex="1" parent="f-wM4YywMEG4VE4mOqUz-4">
          <mxGeometry y="78" width="220" height="26" as="geometry" />
        </mxCell>
        <mxCell id="f-wM4YywMEG4VE4mOqUz-9" value="query(key): Response" style="label;fontStyle=0;strokeColor=none;fillColor=none;align=left;verticalAlign=top;overflow=hidden;spacingLeft=28;spacingRight=4;rotatable=0;points=[[0,0.5],[1,0.5]];portConstraint=eastwest;imageWidth=16;imageHeight=16;whiteSpace=wrap;html=1;image=img/clipart/Gear_128x128.png" vertex="1" parent="f-wM4YywMEG4VE4mOqUz-4">
          <mxGeometry y="104" width="220" height="26" as="geometry" />
        </mxCell>
        <mxCell id="f-wM4YywMEG4VE4mOqUz-12" value="«interface»&lt;br&gt;&lt;b&gt;input&lt;/b&gt;" style="html=1;whiteSpace=wrap;" vertex="1" parent="WIyWlLk6GJQsqaUBKTNV-1">
          <mxGeometry x="-10" y="230" width="110" height="50" as="geometry" />
        </mxCell>
        <mxCell id="f-wM4YywMEG4VE4mOqUz-13" value="Use" style="endArrow=open;endSize=12;dashed=1;html=1;rounded=0;exitX=0.494;exitY=1.108;exitDx=0;exitDy=0;exitPerimeter=0;" edge="1" parent="WIyWlLk6GJQsqaUBKTNV-1" source="f-wM4YywMEG4VE4mOqUz-9" target="f-wM4YywMEG4VE4mOqUz-12">
          <mxGeometry width="160" relative="1" as="geometry">
            <mxPoint x="170" y="280" as="sourcePoint" />
            <mxPoint x="90" y="270" as="targetPoint" />
          </mxGeometry>
        </mxCell>
        <mxCell id="f-wM4YywMEG4VE4mOqUz-14" value="Usuarioinput" style="swimlane;fontStyle=2;align=center;verticalAlign=top;childLayout=stackLayout;horizontal=1;startSize=26;horizontalStack=0;resizeParent=1;resizeLast=0;collapsible=1;marginBottom=0;rounded=0;shadow=0;strokeWidth=1;" vertex="1" parent="WIyWlLk6GJQsqaUBKTNV-1">
          <mxGeometry x="-20" y="340" width="130" height="78" as="geometry">
            <mxRectangle x="230" y="140" width="160" height="26" as="alternateBounds" />
          </mxGeometry>
        </mxCell>
        <mxCell id="f-wM4YywMEG4VE4mOqUz-15" value="+ email: str" style="text;strokeColor=none;fillColor=none;align=left;verticalAlign=top;spacingLeft=4;spacingRight=4;overflow=hidden;rotatable=0;points=[[0,0.5],[1,0.5]];portConstraint=eastwest;whiteSpace=wrap;html=1;" vertex="1" parent="f-wM4YywMEG4VE4mOqUz-14">
          <mxGeometry y="26" width="130" height="26" as="geometry" />
        </mxCell>
        <mxCell id="f-wM4YywMEG4VE4mOqUz-16" value="+ pass: str" style="text;strokeColor=none;fillColor=none;align=left;verticalAlign=top;spacingLeft=4;spacingRight=4;overflow=hidden;rotatable=0;points=[[0,0.5],[1,0.5]];portConstraint=eastwest;whiteSpace=wrap;html=1;" vertex="1" parent="f-wM4YywMEG4VE4mOqUz-14">
          <mxGeometry y="52" width="130" height="26" as="geometry" />
        </mxCell>
        <mxCell id="f-wM4YywMEG4VE4mOqUz-19" value="Extends" style="endArrow=block;endSize=16;endFill=0;html=1;rounded=0;exitX=0.5;exitY=0;exitDx=0;exitDy=0;entryX=0.5;entryY=1;entryDx=0;entryDy=0;" edge="1" parent="WIyWlLk6GJQsqaUBKTNV-1" source="f-wM4YywMEG4VE4mOqUz-14" target="f-wM4YywMEG4VE4mOqUz-12">
          <mxGeometry width="160" relative="1" as="geometry">
            <mxPoint x="220" y="280" as="sourcePoint" />
            <mxPoint x="380" y="280" as="targetPoint" />
          </mxGeometry>
        </mxCell>
        <mxCell id="f-wM4YywMEG4VE4mOqUz-20" value="Response" style="swimlane;fontStyle=2;align=center;verticalAlign=top;childLayout=stackLayout;horizontal=1;startSize=26;horizontalStack=0;resizeParent=1;resizeLast=0;collapsible=1;marginBottom=0;rounded=0;shadow=0;strokeWidth=1;" vertex="1" parent="WIyWlLk6GJQsqaUBKTNV-1">
          <mxGeometry x="150" y="230" width="130" height="78" as="geometry">
            <mxRectangle x="230" y="140" width="160" height="26" as="alternateBounds" />
          </mxGeometry>
        </mxCell>
        <mxCell id="f-wM4YywMEG4VE4mOqUz-21" value="+ status: HtttpCde" style="text;strokeColor=none;fillColor=none;align=left;verticalAlign=top;spacingLeft=4;spacingRight=4;overflow=hidden;rotatable=0;points=[[0,0.5],[1,0.5]];portConstraint=eastwest;whiteSpace=wrap;html=1;" vertex="1" parent="f-wM4YywMEG4VE4mOqUz-20">
          <mxGeometry y="26" width="130" height="26" as="geometry" />
        </mxCell>
        <mxCell id="f-wM4YywMEG4VE4mOqUz-22" value="+ body: Object" style="text;strokeColor=none;fillColor=none;align=left;verticalAlign=top;spacingLeft=4;spacingRight=4;overflow=hidden;rotatable=0;points=[[0,0.5],[1,0.5]];portConstraint=eastwest;whiteSpace=wrap;html=1;" vertex="1" parent="f-wM4YywMEG4VE4mOqUz-20">
          <mxGeometry y="52" width="130" height="26" as="geometry" />
        </mxCell>
        <mxCell id="f-wM4YywMEG4VE4mOqUz-23" value="Use" style="endArrow=open;endSize=12;dashed=1;html=1;rounded=0;entryX=0.5;entryY=0;entryDx=0;entryDy=0;exitX=0.487;exitY=1.077;exitDx=0;exitDy=0;exitPerimeter=0;" edge="1" parent="WIyWlLk6GJQsqaUBKTNV-1" source="f-wM4YywMEG4VE4mOqUz-9" target="f-wM4YywMEG4VE4mOqUz-20">
          <mxGeometry width="160" relative="1" as="geometry">
            <mxPoint x="130" y="190" as="sourcePoint" />
            <mxPoint x="110" y="237" as="targetPoint" />
          </mxGeometry>
        </mxCell>
        <mxCell id="f-wM4YywMEG4VE4mOqUz-24" value="HttpCode" style="html=1;whiteSpace=wrap;" vertex="1" parent="WIyWlLk6GJQsqaUBKTNV-1">
          <mxGeometry x="160" y="354" width="110" height="50" as="geometry" />
        </mxCell>
        <mxCell id="f-wM4YywMEG4VE4mOqUz-25" value="Use" style="endArrow=open;endSize=12;dashed=1;html=1;rounded=0;exitX=0.477;exitY=0.985;exitDx=0;exitDy=0;exitPerimeter=0;" edge="1" parent="WIyWlLk6GJQsqaUBKTNV-1" source="f-wM4YywMEG4VE4mOqUz-22" target="f-wM4YywMEG4VE4mOqUz-24">
          <mxGeometry width="160" relative="1" as="geometry">
            <mxPoint x="445" y="310" as="sourcePoint" />
            <mxPoint x="390" y="357" as="targetPoint" />
          </mxGeometry>
        </mxCell>
        <mxCell id="f-wM4YywMEG4VE4mOqUz-26" value="«interface»&lt;br&gt;&lt;b&gt;ICRUD&lt;/b&gt;" style="html=1;whiteSpace=wrap;" vertex="1" parent="WIyWlLk6GJQsqaUBKTNV-1">
          <mxGeometry x="530" y="60" width="110" height="50" as="geometry" />
        </mxCell>
        <mxCell id="f-wM4YywMEG4VE4mOqUz-27" value="Extends" style="endArrow=block;endSize=16;endFill=0;html=1;rounded=0;exitX=0.5;exitY=0;exitDx=0;exitDy=0;entryX=0.5;entryY=1;entryDx=0;entryDy=0;" edge="1" parent="WIyWlLk6GJQsqaUBKTNV-1" source="zkfFHV4jXpPFQw0GAbJ--0" target="f-wM4YywMEG4VE4mOqUz-26">
          <mxGeometry width="160" relative="1" as="geometry">
            <mxPoint x="440" y="320" as="sourcePoint" />
            <mxPoint x="440" y="260" as="targetPoint" />
          </mxGeometry>
        </mxCell>
        <mxCell id="f-wM4YywMEG4VE4mOqUz-28" value="Use" style="endArrow=open;endSize=12;dashed=1;html=1;rounded=0;entryX=1;entryY=0.5;entryDx=0;entryDy=0;exitX=0;exitY=1.123;exitDx=0;exitDy=0;exitPerimeter=0;" edge="1" parent="WIyWlLk6GJQsqaUBKTNV-1" source="f-wM4YywMEG4VE4mOqUz-0" target="f-wM4YywMEG4VE4mOqUz-21">
          <mxGeometry width="160" relative="1" as="geometry">
            <mxPoint x="350" y="310" as="sourcePoint" />
            <mxPoint x="438" y="358" as="targetPoint" />
          </mxGeometry>
        </mxCell>
        <mxCell id="f-wM4YywMEG4VE4mOqUz-29" value="Logger&lt;A&gt;" style="swimlane;fontStyle=2;align=center;verticalAlign=top;childLayout=stackLayout;horizontal=1;startSize=26;horizontalStack=0;resizeParent=1;resizeLast=0;collapsible=1;marginBottom=0;rounded=0;shadow=0;strokeWidth=1;" vertex="1" parent="WIyWlLk6GJQsqaUBKTNV-1">
          <mxGeometry x="320" y="50" width="130" height="104" as="geometry">
            <mxRectangle x="230" y="140" width="160" height="26" as="alternateBounds" />
          </mxGeometry>
        </mxCell>
        <mxCell id="f-wM4YywMEG4VE4mOqUz-30" value="+ fecha: timestamp" style="text;strokeColor=none;fillColor=none;align=left;verticalAlign=top;spacingLeft=4;spacingRight=4;overflow=hidden;rotatable=0;points=[[0,0.5],[1,0.5]];portConstraint=eastwest;whiteSpace=wrap;html=1;" vertex="1" parent="f-wM4YywMEG4VE4mOqUz-29">
          <mxGeometry y="26" width="130" height="26" as="geometry" />
        </mxCell>
        <mxCell id="f-wM4YywMEG4VE4mOqUz-31" value="+ entity: A" style="text;strokeColor=none;fillColor=none;align=left;verticalAlign=top;spacingLeft=4;spacingRight=4;overflow=hidden;rotatable=0;points=[[0,0.5],[1,0.5]];portConstraint=eastwest;whiteSpace=wrap;html=1;" vertex="1" parent="f-wM4YywMEG4VE4mOqUz-29">
          <mxGeometry y="52" width="130" height="26" as="geometry" />
        </mxCell>
        <mxCell id="f-wM4YywMEG4VE4mOqUz-32" value="+ content: Object" style="text;strokeColor=none;fillColor=none;align=left;verticalAlign=top;spacingLeft=4;spacingRight=4;overflow=hidden;rotatable=0;points=[[0,0.5],[1,0.5]];portConstraint=eastwest;whiteSpace=wrap;html=1;" vertex="1" parent="f-wM4YywMEG4VE4mOqUz-29">
          <mxGeometry y="78" width="130" height="26" as="geometry" />
        </mxCell>
        <mxCell id="f-wM4YywMEG4VE4mOqUz-33" value="Extends" style="endArrow=block;endSize=16;endFill=0;html=1;rounded=0;exitX=0;exitY=0.5;exitDx=0;exitDy=0;entryX=1;entryY=0.5;entryDx=0;entryDy=0;" edge="1" parent="WIyWlLk6GJQsqaUBKTNV-1" source="f-wM4YywMEG4VE4mOqUz-31" target="f-wM4YywMEG4VE4mOqUz-8">
          <mxGeometry width="160" relative="1" as="geometry">
            <mxPoint x="300" y="294" as="sourcePoint" />
            <mxPoint x="375" y="180" as="targetPoint" />
          </mxGeometry>
        </mxCell>
        <mxCell id="f-wM4YywMEG4VE4mOqUz-34" value="&lt;font style=&quot;font-size: 14px;&quot;&gt;Supuesto 1:&amp;nbsp;&lt;/font&gt;&lt;div&gt;&lt;font style=&quot;font-size: 14px;&quot;&gt;Email debe ser único.&lt;/font&gt;&lt;/div&gt;&lt;div&gt;&lt;font style=&quot;font-size: 14px;&quot;&gt;&amp;nbsp;Contraseña requiere mínimo 6 caracteres&amp;nbsp;&lt;/font&gt;&lt;/div&gt;&lt;div&gt;&lt;font style=&quot;font-size: 14px;&quot;&gt;(1 mayúscula, 1 digito).&lt;/font&gt;&lt;/div&gt;" style="html=1;whiteSpace=wrap;fillColor=#dae8fc;strokeColor=#6c8ebf;" vertex="1" parent="WIyWlLk6GJQsqaUBKTNV-1">
          <mxGeometry x="300" y="390" width="290" height="80" as="geometry" />
        </mxCell>
        <mxCell id="f-wM4YywMEG4VE4mOqUz-37" value="200: OK&lt;div&gt;400: Not Allowed&lt;br&gt;&lt;div&gt;404: Not Found&amp;nbsp;&lt;/div&gt;&lt;/div&gt;" style="html=1;whiteSpace=wrap;dashed=1;" vertex="1" parent="WIyWlLk6GJQsqaUBKTNV-1">
          <mxGeometry x="160" y="418" width="120" height="60" as="geometry" />
        </mxCell>
      </root>
    </mxGraphModel>
  </diagram>
</mxfile>
